<svg width="21" height="20" viewBox="0 0 21 20" fill="none" xmlns="http://www.w3.org/2000/svg">
<path d="M7.81672 18.1818C8.2751 18.1818 8.64669 17.8155 8.64669 17.3636C8.64669 16.9118 8.2751 16.5455 7.81672 16.5455C7.35834 16.5455 6.98676 16.9118 6.98676 17.3636C6.98676 17.8155 7.35834 18.1818 7.81672 18.1818Z" stroke="#9B9B9B" stroke-width="2" stroke-linecap="round" stroke-linejoin="round"/>
<path d="M16.9463 18.1818C17.4047 18.1818 17.7763 17.8155 17.7763 17.3636C17.7763 16.9118 17.4047 16.5455 16.9463 16.5455C16.4879 16.5455 16.1163 16.9118 16.1163 17.3636C16.1163 17.8155 16.4879 18.1818 16.9463 18.1818Z" stroke="#9B9B9B" stroke-width="2" stroke-linecap="round" stroke-linejoin="round"/>
<path d="M1.17694 1H4.49681L6.72112 11.9555C6.79701 12.3321 7.00489 12.6705 7.30835 12.9113C7.61182 13.1522 7.99154 13.2801 8.38105 13.2727H16.4483C16.8378 13.2801 17.2175 13.1522 17.521 12.9113C17.8245 12.6705 18.0324 12.3321 18.1083 11.9555L19.4362 5.09091H5.32677" stroke="#9B9B9B" stroke-width="2" stroke-linecap="round" stroke-linejoin="round"/>
</svg>
