<svg width="23" height="19" viewBox="0 0 23 19" fill="none" xmlns="http://www.w3.org/2000/svg">
<path d="M16.2952 0C17.9476 0 19.3356 0.54932 20.4592 1.64796C21.5829 2.7466 22.1447 4.08759 22.1447 5.67092C22.1447 6.44643 21.9794 7.23002 21.649 8.02169C21.3185 8.81335 20.9549 9.51616 20.5584 10.1301C20.1618 10.744 19.4926 11.5357 18.5507 12.5051C17.6088 13.4745 16.8157 14.2581 16.1712 14.8559C15.5268 15.4537 14.494 16.3665 13.073 17.5944L11.5362 18.9515L9.99949 17.6429C8.61147 16.3827 7.58698 15.4537 6.92602 14.8559C6.26505 14.2581 5.46364 13.4745 4.52177 12.5051C3.5799 11.5357 2.91067 10.744 2.51409 10.1301C2.11752 9.51616 1.76225 8.81335 1.44829 8.02169C1.13433 7.23002 0.977356 6.44643 0.977356 5.67092C0.977356 4.08759 1.53917 2.7466 2.66281 1.64796C3.78645 0.54932 5.15794 0 6.7773 0C8.69409 0 10.2804 0.727041 11.5362 2.18112C12.7921 0.727041 14.3784 0 16.2952 0ZM11.6354 16.0918C13.2547 14.6701 14.4362 13.6118 15.1798 12.9171C15.9234 12.2224 16.7413 11.3903 17.6336 10.4209C18.5259 9.45153 19.1456 8.60332 19.4926 7.87628C19.8396 7.14924 20.0131 6.41412 20.0131 5.67092C20.0131 4.63691 19.6578 3.78061 18.9473 3.10204C18.2367 2.42347 17.3527 2.08418 16.2952 2.08418C15.502 2.08418 14.7502 2.31037 14.0396 2.76276C13.3291 3.21514 12.8251 3.79677 12.5277 4.50765H10.5448C10.2804 3.79677 9.79294 3.21514 9.08241 2.76276C8.37187 2.31037 7.6035 2.08418 6.7773 2.08418C5.71976 2.08418 4.84399 2.42347 4.14998 3.10204C3.45596 3.78061 3.10896 4.63691 3.10896 5.67092C3.10896 6.41412 3.2742 7.14924 3.60468 7.87628C3.93516 8.60332 4.55481 9.45153 5.46364 10.4209C6.37246 11.3903 7.19866 12.2224 7.94225 12.9171C8.68583 13.6118 9.85078 14.6701 11.4371 16.0918L11.5362 16.1888L11.6354 16.0918Z" fill="#9B9B9B"/>
</svg>
