<svg width="21" height="20" viewBox="0 0 21 20" fill="none" xmlns="http://www.w3.org/2000/svg">
<path fill-rule="evenodd" clip-rule="evenodd" d="M0.711914 10C0.711914 4.579 5.35687 0 10.8559 0C16.355 0 21 4.579 21 10C21 13.19 19.3851 16.078 16.9424 17.924V18H16.8389C15.1469 19.245 13.0744 20 10.8559 20C8.63745 20 6.56502 19.245 4.873 18H4.76953V17.924C2.32684 16.078 0.711914 13.189 0.711914 10ZM7.93798 15.236C7.39839 15.6639 7.02289 16.2604 6.8734 16.927C8.05822 17.604 9.41955 18 10.8559 18C12.2923 18 13.6537 17.604 14.8385 16.927C14.6888 16.2605 14.3133 15.6641 13.7737 15.2362C13.2342 14.8083 12.5628 14.5744 11.8704 14.573H9.84154C9.14901 14.5742 8.47757 14.808 7.93798 15.236ZM14.6779 13.4117C15.5098 13.9574 16.1598 14.7329 16.5468 15.641C18.0349 14.182 18.9712 12.176 18.9712 10C18.9712 5.663 15.2554 2 10.8559 2C6.45648 2 2.74072 5.663 2.74072 10C2.74072 12.176 3.67701 14.182 5.16514 15.641C5.55208 14.7329 6.20214 13.9574 7.03395 13.4117C7.86576 12.866 8.84237 12.5742 9.84154 12.573H11.8704C12.8695 12.5742 13.8461 12.866 14.6779 13.4117ZM6.79835 8C6.79835 5.72 8.54313 4 10.856 4C13.1688 4 14.9136 5.72 14.9136 8C14.9136 10.28 13.1688 12 10.856 12C8.54313 12 6.79835 10.28 6.79835 8ZM8.82716 8C8.82716 9.178 9.661 10 10.856 10C12.0509 10 12.8848 9.178 12.8848 8C12.8848 6.822 12.0509 6 10.856 6C9.661 6 8.82716 6.822 8.82716 8Z" fill="#9B9B9B"/>
</svg>
